HIERARCHY
ROOT Hips
{
  OFFSET 179.979 97.3047 303.174
  CHANNELS 6 Xposition Yposition Zposition Zrotation Xrotation Yrotation
  JOINT Spine
  {
    OFFSET 0.000859786 9.92346 -1.22733
    CHANNELS 3 Zrotation Xrotation Yrotation
    JOINT Spine1
    {
      OFFSET 0 11.732 0
      CHANNELS 3 Zrotation Xrotation Yrotation
      JOINT Spine2
      {
        OFFSET 0 13.4588 0
        CHANNELS 3 Zrotation Xrotation Yrotation
        JOINT Neck
        {
          OFFSET 2.54812e-05 15.0278 0.877907
          CHANNELS 3 Zrotation Xrotation Yrotation
          JOINT Head
          {
            OFFSET 0 10.3218 3.14243
            CHANNELS 3 Zrotation Xrotation Yrotation
            End Site
            {
              OFFSET 0 0 0
            }
          }
        }
        JOINT LeftShoulder
        {
          OFFSET 6.10582 9.10629 0.757062
          CHANNELS 3 Zrotation Xrotation Yrotation
          JOINT LeftArm
          {
            OFFSET 0 12.9223 0
            CHANNELS 3 Zrotation Xrotation Yrotation
            JOINT LeftForeArm
            {
              OFFSET 0 27.4047 0
              CHANNELS 3 Zrotation Xrotation Yrotation
              JOINT LeftHand
              {
                OFFSET -1.28204e-05 27.6145 0
                CHANNELS 3 Zrotation Xrotation Yrotation
                End Site
                {
                  OFFSET 0 0 0
                }
              }
            }
          }
        }
        JOINT RightShoulder
        {
          OFFSET -6.1057 9.10638 0.757076
          CHANNELS 3 Zrotation Xrotation Yrotation
          JOINT RightArm
          {
            OFFSET 0 12.9223 0
            CHANNELS 3 Zrotation Xrotation Yrotation
            JOINT RightForeArm
            {
              OFFSET 0 27.4047 0
              CHANNELS 3 Zrotation Xrotation Yrotation
              JOINT RightHand
              {
                OFFSET 1.28428e-05 27.6145 1.44975e-05
                CHANNELS 3 Zrotation Xrotation Yrotation
                End Site
                {
                  OFFSET 0 0 0
                }
              }
            }
          }
        }
      }
    }
  }
  JOINT LeftUpLeg
  {
    OFFSET 9.12387 -6.65719 -0.0554031
    CHANNELS 3 Zrotation Xrotation Yrotation
    JOINT LeftLeg
    {
      OFFSET 0 40.5994 0
      CHANNELS 3 Zrotation Xrotation Yrotation
      JOINT LeftFoot
      {
        OFFSET 0 42.099 0
        CHANNELS 3 Zrotation Xrotation Yrotation
        JOINT LeftToeBase
        {
          OFFSET 0 15.7216 0
          CHANNELS 3 Zrotation Xrotation Yrotation
          End Site
          {
            OFFSET 0 0 0
          }
        }
      }
    }
  }
  JOINT RightUpLeg
  {
    OFFSET -9.12503 -6.6556 -0.0553527
    CHANNELS 3 Zrotation Xrotation Yrotation
    JOINT RightLeg
    {
      OFFSET 0 40.5994 0
      CHANNELS 3 Zrotation Xrotation Yrotation
      JOINT RightFoot
      {
        OFFSET 0 42.099 0
        CHANNELS 3 Zrotation Xrotation Yrotation
        JOINT RightToeBase
        {
          OFFSET 0 15.7216 0
          CHANNELS 3 Zrotation Xrotation Yrotation
          End Site
          {
            OFFSET 0 0 0
          }
        }
      }
    }
  }
}
MOTION
Frames:	18
Frame Time:	0.0333333
209.203 98.7363 92.8648 2.56664 -8.91828 -1.06266 -0.761773 -4.30144 0.0571556 -1.58749 5.35636 0.344884 -1.62849 11.9504 0.358415 -6.68538 9.75089 -7.6224 11.1998 -16.7787 -10.9562 -88.1009 -14.5644 90.2097 15.1983 3.82632 -8.31851 17.2918 -16.0517 -0.746728 -7.11624 -2.95631 19.2559 89.0879 -20.7327 -89.7599 -20.03 0.923876 7.96986 -14.8779 -15.7556 0.742839 5.77406 -5.19451 -4.6146 -177.933 -9.06235 3.8015 -2.17724 -7.32632 -8.04583 11.7259 65.0055 -13.326 -0.965272 26.367 -3.60229 171.829 -9.22549 2.71029 4.95777 -11.2569 13.7672 -23.8756 69.8825 27.7513 0.963537 26.3682 3.55537 
209.2 98.7363 92.8649 2.56664 -8.91828 -1.06266 -0.761773 -4.30144 0.0571556 -1.58749 5.35636 0.344884 -1.62849 11.9504 0.358415 -6.68584 9.76915 -7.6228 11.201 -16.7921 -10.957 -88.1011 -14.5549 90.2091 15.1897 3.82922 -8.31668 17.2942 -16.0517 -0.746728 -7.09667 -2.96411 19.2179 89.088 -20.7298 -89.7597 -20.0382 0.933025 7.97581 -14.8678 -15.7556 0.742839 5.76453 -5.21207 -4.64005 -177.933 -9.06235 3.8015 -2.17724 -7.32632 -8.04583 11.7259 65.0055 -13.326 -0.965272 26.367 -3.60229 171.828 -9.22552 2.70653 4.95897 -11.2617 13.7674 -23.8849 69.8886 27.76 0.963537 26.3682 3.55537 
209.193 98.7363 92.8695 2.56664 -8.91828 -1.06266 -0.761773 -4.30144 0.0571556 -1.58749 5.35636 0.344884 -1.62849 11.9504 0.358415 -6.68749 9.82327 -7.624 11.2063 -16.8448 -10.9601 -88.1016 -14.5288 90.2077 15.1648 3.83568 -8.3048 17.3029 -16.0579 -0.746751 -7.05148 -2.97708 19.1268 89.0932 -20.7222 -89.7576 -20.0573 0.953282 7.9893 -14.8433 -15.7556 0.742839 5.74086 -5.21987 -4.66644 -177.933 -9.06235 3.8015 -2.17724 -7.32632 -8.04583 11.729 65.0112 -13.336 -0.965272 26.367 -3.60229 171.827 -9.22559 2.69642 4.96252 -11.2722 13.7734 -23.909 69.9043 27.7827 0.963537 26.3682 3.55537 
209.186 98.7363 92.8744 2.56664 -8.91828 -1.06266 -0.761773 -4.30144 0.0571556 -1.58749 5.35636 0.344884 -1.62849 11.9504 0.358415 -6.68869 9.85142 -7.62463 11.2161 -16.8656 -10.9613 -88.1021 -14.5033 90.2063 15.1412 3.8401 -8.28834 17.3124 -16.0656 -0.74678 -7.01862 -2.98446 19.0432 89.099 -20.7137 -89.7553 -20.0771 0.973088 8.00392 -14.8176 -15.7501 0.742819 5.72449 -5.1736 -4.64767 -177.932 -9.06328 3.80618 -2.17724 -7.32632 -8.04583 11.7322 65.0169 -13.3467 -0.965272 26.367 -3.60229 171.825 -9.22567 2.68482 4.96603 -11.2819 13.7803 -23.9347 69.921 27.8068 0.963537 26.3682 3.55537 
209.178 98.7363 92.8799 2.56664 -8.91828 -1.06266 -0.761773 -4.30144 0.0571556 -1.58749 5.35636 0.344884 -1.62849 11.9504 0.358415 -6.68891 9.8562 -7.62473 11.2263 -16.8668 -10.9614 -88.1025 -14.4859 90.2053 15.1271 3.83929 -8.275 17.3198 -16.0715 -0.746802 -7.00656 -2.98769 18.9879 89.1062 -20.7053 -89.7525 -20.0968 0.993084 8.02178 -14.7913 -15.73 0.742746 5.7259 -5.11814 -4.63441 -177.931 -9.0714 3.81252 -2.17724 -7.32632 -8.04583 11.7357 65.0233 -13.358 -0.965272 26.367 -3.60229 171.823 -9.22576 2.67156 4.96918 -11.2889 13.7889 -23.9689 69.9347 27.8386 0.963537 26.3682 3.55537 
209.17 98.7362 92.8867 2.56664 -8.91828 -1.06266 -0.761773 -4.30144 0.0571556 -1.58749 5.35636 0.344884 -1.62849 11.9504 0.358415 -6.688 9.83949 -7.62436 11.2341 -16.8537 -10.9606 -88.1026 -14.4781 90.2048 15.1237 3.83273 -8.27094 17.3223 -16.0686 -0.746792 -7.01368 -3.00318 18.9707 89.1149 -20.6974 -89.7529 -20.1151 1.01466 8.04474 -14.7665 -15.6848 0.737465 5.75037 -5.10613 -4.59604 -177.929 -9.07338 3.81941 -2.17724 -7.32632 -8.04583 11.7393 65.0298 -13.3691 -0.965272 26.367 -3.60229 171.821 -9.22584 2.65864 4.97202 -11.2939 13.7985 -24.0002 69.9442 27.8697 0.963537 26.3682 3.55537 
209.163 98.7362 92.8943 2.56664 -8.91828 -1.06266 -0.761773 -4.30144 0.0571556 -1.58749 5.35636 0.344884 -1.62849 11.9504 0.358415 -6.68634 9.80311 -7.62356 11.234 -16.8307 -10.9593 -88.1027 -14.4765 90.2048 15.1213 3.82217 -8.27144 17.3183 -16.0599 -0.746759 -7.02736 -3.03259 18.9762 89.1239 -20.6909 -89.7532 -20.1317 1.04233 8.07704 -14.7447 -15.6224 0.73053 5.78533 -5.15007 -4.56087 -177.925 -9.0837 3.8239 -2.17724 -7.32632 -8.04583 11.7433 65.037 -13.3798 -0.965272 26.367 -3.60229 171.825 -9.22593 2.64709 4.9757 -11.3025 13.808 -24.0237 69.9491 27.8942 0.963537 26.3682 3.55537 
209.157 98.736 92.9028 2.56664 -8.91828 -1.06266 -0.761773 -4.30144 0.0571556 -1.58263 5.35636 0.344882 -1.62341 11.9504 0.357827 -6.68474 9.75161 -7.62242 11.2224 -16.8057 -10.953 -88.1026 -14.4772 90.2048 15.1203 3.81058 -8.28171 17.3125 -16.0474 -0.746712 -7.03284 -3.05816 18.9832 89.1325 -20.6882 -89.7531 -20.1476 1.07604 8.11648 -14.7277 -15.5629 0.72421 5.81684 -5.17564 -4.51876 -177.918 -9.09007 3.82495 -2.17724 -7.32632 -8.04583 11.7475 65.0446 -13.3894 -0.965272 26.367 -3.60229 171.833 -9.22601 2.63814 4.98086 -11.3182 13.816 -24.029 69.9489 27.9038 0.963537 26.3682 3.55537 
209.152 98.7355 92.9118 2.56728 -8.91829 -1.05853 -0.761773 -4.30144 0.0571556 -1.57817 5.35636 0.344881 -1.61872 11.9505 0.357285 -6.68337 9.70241 -7.61604 11.2141 -16.7957 -10.9423 -88.1056 -14.4794 90.2042 15.1209 3.79585 -8.29857 17.3086 -16.0314 -0.746652 -7.031 -3.07708 18.9794 89.1406 -20.6987 -89.752 -20.1758 1.11446 8.14347 -14.7096 -15.5338 0.720851 5.83325 -5.15738 -4.51035 -177.913 -9.09305 3.8241 -2.17683 -7.32638 -8.04133 11.7518 65.0523 -13.3977 -0.965272 26.367 -3.60229 171.837 -9.22606 2.63199 4.98509 -11.3309 13.8227 -24.0261 69.9465 27.9069 0.963537 26.3682 3.55537 
209.152 98.7351 92.9215 2.56822 -8.91831 -1.05242 -0.761773 -4.30144 0.0571556 -1.57329 5.35636 0.344879 -1.6135 11.9505 0.35589 -6.68672 9.66264 -7.60364 11.2228 -16.7923 -10.9285 -88.1103 -14.4881 90.2034 15.1235 3.77647 -8.30782 17.2934 -16.0157 -0.746593 -7.01311 -3.09172 18.9487 89.1471 -20.7176 -89.7508 -20.2119 1.1513 8.17364 -14.6867 -15.5336 0.720432 5.81619 -5.10293 -4.58075 -177.912 -9.09521 3.82114 -2.17628 -7.32646 -8.03531 11.7434 65.0591 -13.3913 -0.965272 26.367 -3.60229 171.84 -9.22607 2.6309 4.98775 -11.3385 13.8275 -24.0224 69.9437 27.9104 0.963537 26.3682 3.55537 
209.153 98.7347 92.9323 2.56948 -8.91833 -1.0443 -0.761773 -4.30144 0.0571556 -1.56771 5.35636 0.344876 -1.60761 11.9505 0.354456 -6.69298 9.63342 -7.59131 11.2316 -16.7852 -10.9168 -88.1138 -14.5051 90.2034 15.1339 3.76042 -8.32067 17.2754 -16.0118 -0.746579 -6.98713 -3.10376 18.8916 89.1516 -20.7349 -89.7497 -20.2455 1.18194 8.20266 -14.6617 -15.5537 0.721562 5.78142 -5.03555 -4.67097 -177.913 -9.09669 3.81365 -2.17539 -7.32658 -8.02563 11.732 65.0669 -13.3799 -0.965272 26.367 -3.60229 171.84 -9.22604 2.63539 4.98908 -11.3432 13.83 -24.022 69.9428 27.918 0.963537 26.3682 3.55537 
209.153 98.7342 92.9435 2.57535 -8.91378 -1.03333 -0.761773 -4.30144 0.0571556 -1.56181 5.35636 0.344874 -1.60137 11.9505 0.353007 -6.70164 9.62817 -7.58413 11.2467 -16.7882 -10.9127 -88.1138 -14.5235 90.2043 15.1509 3.75021 -8.32937 17.2554 -16.0217 -0.746616 -6.96592 -3.13192 18.771 89.156 -20.7488 -89.7485 -20.271 1.20237 8.22752 -14.6646 -15.579 0.724305 5.80082 -4.97294 -4.70253 -177.918 -9.09759 3.8018 -2.17417 -7.32675 -8.01228 11.7176 65.0746 -13.3621 -0.965272 26.367 -3.60229 171.834 -9.22597 2.64317 4.99056 -11.3473 13.8316 -24.0269 69.9462 27.9317 0.963537 26.3682 3.55537 
209.154 98.7337 92.9542 2.5821 -8.90923 -1.02621 -0.761773 -4.30144 0.0571556 -1.55615 5.35636 0.344872 -1.59539 11.9505 0.351592 -6.70784 9.66098 -7.58811 11.2612 -16.8159 -10.92 -88.1115 -14.5376 90.2057 15.1749 3.74273 -8.31301 17.2188 -16.0394 -0.746682 -6.93307 -3.19494 18.6261 89.1615 -20.7575 -89.7469 -20.2937 1.20675 8.24978 -14.6697 -15.5889 0.726435 5.8219 -4.93922 -4.6474 -177.926 -9.098 3.7867 -2.173 -7.32692 -7.99952 11.7156 65.0815 -13.3543 -0.965272 26.367 -3.60229 171.825 -9.22595 2.64517 4.99317 -11.3545 13.8342 -24.0349 69.9518 27.95 0.963537 26.3682 3.55537 
209.159 98.7332 92.9645 2.58921 -8.90464 -1.02253 -0.761773 -4.30144 0.0571556 -1.55056 5.35636 0.343781 -1.58957 11.9505 0.350185 -6.7034 9.70557 -7.59648 11.2749 -16.8463 -10.929 -88.1057 -14.5481 90.2076 15.2049 3.74438 -8.28346 17.1769 -16.059 -0.746755 -6.90278 -3.27551 18.5004 89.1661 -20.7577 -89.7461 -20.3131 1.1978 8.25979 -14.6689 -15.5792 0.728349 5.83416 -4.93955 -4.54763 -177.935 -9.09793 3.77722 -2.17238 -7.327 -7.99273 11.7176 65.0867 -13.3516 -0.965272 26.367 -3.60229 171.814 -9.22596 2.64043 4.99634 -11.3626 13.8389 -24.0453 69.9588 27.9711 0.963537 26.3682 3.55537 
209.164 98.7326 92.9747 2.59642 -8.89951 -1.02022 -0.761773 -4.30144 0.0571556 -1.54551 5.35636 0.342726 -1.58433 11.9506 0.348816 -6.6911 9.74857 -7.60475 11.2924 -16.8687 -10.9362 -88.0943 -14.5516 90.2107 15.2437 3.74795 -8.28924 17.1436 -16.0826 -0.746844 -6.87678 -3.32182 18.4186 89.172 -20.7541 -89.7459 -20.3345 1.18255 8.23392 -14.6541 -15.5663 0.730111 5.83552 -4.95946 -4.42543 -177.947 -9.09749 3.77541 -2.1723 -7.32701 -7.99187 11.7213 65.0885 -13.3505 -0.965272 26.367 -3.60229 171.802 -9.22601 2.63059 4.99927 -11.369 13.8458 -24.0569 69.9659 27.9934 0.963537 26.3682 3.55537 
209.169 98.732 92.9848 2.60369 -8.89329 -1.01697 -0.761773 -4.30144 0.0571556 -1.54114 5.35636 0.341671 -1.57975 11.9506 0.347477 -6.67291 9.77754 -7.61157 11.3174 -16.8623 -10.9419 -88.0883 -14.5489 90.2121 15.2933 3.75261 -8.34567 17.1395 -16.0821 -0.746842 -6.83194 -3.40185 18.3606 89.1848 -20.7499 -89.7459 -20.3524 1.16624 8.18642 -14.6553 -15.5573 0.731753 5.82624 -4.98371 -4.37255 -177.958 -9.0968 3.77608 -2.17248 -7.32699 -7.99381 11.7269 65.0905 -13.3523 -0.965272 26.367 -3.60229 171.79 -9.22607 2.61802 5.00166 -11.3734 13.8548 -24.0701 69.9728 28.0175 0.963537 26.3682 3.55537 
209.173 98.7314 92.9948 2.61109 -8.88538 -1.01026 -0.761773 -4.30144 0.0571556 -1.53829 5.35636 0.340581 -1.57676 11.9506 0.346258 -6.64278 9.80569 -7.62255 11.3273 -16.8558 -10.9469 -88.0813 -14.5442 90.2136 15.3529 3.75729 -8.40687 17.1508 -16.0568 -0.746747 -6.77042 -3.57043 18.2252 89.2083 -20.7453 -89.7455 -20.3486 1.16212 8.16337 -14.7059 -15.5788 0.733377 5.78553 -4.93208 -4.50586 -177.967 -9.09598 3.7806 -2.17238 -7.32415 -7.99704 11.7327 65.0923 -13.3557 -0.965272 26.367 -3.60229 171.78 -9.22614 2.60548 5.00334 -11.3755 13.8668 -24.0857 69.9796 28.0443 0.963537 26.3682 3.55537 
209.175 98.7308 93.005 2.61845 -8.87589 -0.997415 -0.761773 -4.30144 0.0571556 -1.53709 5.35636 0.33942 -1.57519 11.9506 0.345123 -6.62079 9.83607 -7.62988 11.3416 -16.8589 -10.9504 -88.0803 -14.5404 90.2136 15.4259 3.77026 -8.46885 17.1679 -16.0403 -0.746685 -6.68888 -3.79125 18.0356 89.2386 -20.7335 -89.7454 -20.3041 1.18251 8.18192 -14.8186 -15.6023 0.734887 5.73961 -4.95535 -4.66832 -177.973 -9.09509 3.79131 -2.17497 -7.31495 -8.00017 11.7364 65.0925 -13.3573 -0.965272 26.367 -3.60229 171.772 -9.22619 2.59662 5.00393 -11.3756 13.8803 -24.104 69.9859 28.0732 0.963537 26.3682 3.55537 
